<svg width="43" height="43" viewBox="0 0 43 43" fill="none" xmlns="http://www.w3.org/2000/svg">
<path d="M37.0158 18.275C37.1878 18.275 37.3365 18.395 37.3652 18.5635C37.5336 19.5059 37.625 20.52 37.625 21.5C37.6304 25.4683 36.167 29.2982 33.5167 32.2518C33.4552 32.32 33.3695 32.3615 33.2778 32.3675C33.1861 32.3736 33.0957 32.3436 33.0258 32.284L28.6452 28.5753C28.6074 28.5428 28.5766 28.5031 28.5547 28.4584C28.5327 28.4137 28.52 28.3651 28.5173 28.3153C28.5146 28.2656 28.522 28.2159 28.5391 28.1691C28.5561 28.1223 28.5825 28.0795 28.6165 28.0432C29.4987 27.083 30.1776 25.9543 30.6124 24.725H21.8583C21.7633 24.725 21.6722 24.6872 21.605 24.62C21.5378 24.5528 21.5 24.4617 21.5 24.3667V18.6333C21.5 18.4363 21.6612 18.275 21.8583 18.275H37.0158ZM25.9308 30.1C25.995 30.0664 26.0677 30.0526 26.1398 30.0603C26.2118 30.0679 26.28 30.0967 26.3357 30.143L30.9367 34.0363C30.9777 34.0705 31.0104 34.1136 31.0323 34.1623C31.0542 34.211 31.0647 34.2641 31.0629 34.3175C31.0612 34.3709 31.0473 34.4232 31.0224 34.4704C30.9974 34.5176 30.962 34.5585 30.9188 34.5899C28.1772 36.5683 24.8809 37.6305 21.5 37.625C18.8125 37.6264 16.1674 36.9555 13.8054 35.6734C11.4434 34.3914 9.43963 32.5388 7.9765 30.2845C7.92857 30.21 7.91044 30.1201 7.92571 30.0328C7.94098 29.9455 7.98853 29.8672 8.05892 29.8133L12.6187 26.2981C12.6606 26.2668 12.7087 26.2446 12.7598 26.2332C12.8109 26.2218 12.8638 26.2213 12.9151 26.2318C12.9663 26.2423 13.0148 26.2635 13.0573 26.2941C13.0998 26.3247 13.1353 26.3639 13.1616 26.4092C14.4151 28.5397 16.4369 30.1094 18.8117 30.7958C21.1864 31.4822 23.7339 31.2332 25.9308 30.1ZM11.9683 23.1591C11.9798 23.2247 11.9732 23.2923 11.9492 23.3544C11.9252 23.4166 11.8847 23.4711 11.8322 23.512L6.93196 27.2871C6.88871 27.321 6.8381 27.3443 6.78421 27.3551C6.73031 27.3659 6.67463 27.3639 6.62164 27.3493C6.56865 27.3347 6.51985 27.3078 6.47914 27.2708C6.43844 27.2339 6.40698 27.1879 6.38729 27.1366C5.71551 25.3334 5.37265 23.4243 5.375 21.5C5.375 19.436 5.76379 17.4616 6.4715 15.6466C6.49137 15.5966 6.52248 15.5518 6.56242 15.5157C6.60236 15.4796 6.65006 15.4532 6.70183 15.4385C6.75361 15.4238 6.80808 15.4212 6.86103 15.4308C6.91398 15.4405 6.96399 15.4622 7.00721 15.4943L11.902 19.0848C12.0185 19.169 12.0723 19.3178 12.0418 19.4575C11.7795 20.6751 11.7558 21.9318 11.9683 23.1591ZM12.805 16.4135C12.977 16.5389 13.2189 16.4887 13.3336 16.3095C14.2068 14.9346 15.4133 13.8027 16.841 13.0187C18.2686 12.2347 19.8712 11.8241 21.5 11.825C23.7522 11.8243 25.9333 12.6136 27.6633 14.0556C27.7332 14.1148 27.8226 14.1458 27.9141 14.1424C28.0055 14.1391 28.0925 14.1018 28.1578 14.0377L32.2178 9.976C32.2518 9.94218 32.2785 9.90177 32.2964 9.85726C32.3143 9.81274 32.3229 9.76505 32.3217 9.7171C32.3205 9.66914 32.3096 9.62193 32.2896 9.57834C32.2695 9.53475 32.2408 9.49571 32.2052 9.46359C29.2619 6.82912 25.4501 5.37328 21.5 5.375C18.8477 5.37354 16.2361 6.02691 13.897 7.27711C11.5579 8.52731 9.5636 10.3357 8.09117 12.5417C8.04167 12.6175 8.02318 12.7094 8.03952 12.7984C8.05586 12.8874 8.10578 12.9668 8.17896 13.02L12.805 16.4135Z" fill="#101728"/>
</svg>
